999
FreeCAD v0.19 24276 (Git)
  0
SECTION
  2
HEADER
  9
$ACADVER
  1
AC1014
  9
$ACADMAINTVER
 70
     9
  9
$DWGCODEPAGE
  3
ANSI_1252
  9
$TEXTSTYLE
  7
STANDARD
  9
$DIMSTYLE
  2
STANDARD
  9
$DIMTXSTY
  7
STANDARD
  9
$CMLSTYLE
  2
STANDARD
  9
$PEXTMAX
 10
50
 20
50
 30
50
  9
$PEXTMIN
 10
0
 20
0
 30
0
  9
$HANDSEED
  5
FFFF
  0
ENDSEC
  0
SECTION
  2
CLASSES
  0
CLASS
  1
ACDBDICTIONARYWDFLT
  2
AcDbDictionaryWithDefault
  3
ObjectDBX Classes
 90
        0
280
     0
281
     0
  0
CLASS
  1
XRECORD
  2
AcDbXrecord
  3
ObjectDBX Classes
 90
        0
280
     0
281
     0
  0
CLASS
  1
LWPOLYLINE
  2
AcDbPolyline
  3
ObjectDBX Classes
 90
        0
280
     0
281
     1
  0
ENDSEC
  0
SECTION
  2
TABLES
  0
TABLE
  2
VPORT
  5
20
330
0
100
AcDbSymbolTable
 70
     1
  0
VPORT
  5
21
330
20
100
AcDbSymbolTableRecord
100
AcDbViewportTableRecord
  2
*ACTIVE
 70
     0
  0
ENDTAB
  0
TABLE
  2
LTYPE
  5
22
330
0
100
AcDbSymbolTable
 70
     1
  0
LTYPE
  5
23
330
21
100
AcDbSymbolTableRecord
100
AcDbLinetypeTableRecord
  2
BYBLOCK
 70
     0
  3

 72
    65
 73
     0
 40
0.0
  0
LTYPE
  5
24
330
21
100
AcDbSymbolTableRecord
100
AcDbLinetypeTableRecord
  2
BYLAYER
 70
     0
  3

 72
    65
 73
     0
 40
0.0
  0
LTYPE
  5
25
330
21
100
AcDbSymbolTableRecord
100
AcDbLinetypeTableRecord
  2
CONTINUOUS
 70
     0
  3
Solid line
 72
    65
 73
     0
 40
0.0
  0
ENDTAB
  0
TABLE
  2
LAYER
  5
B54
330
0
100
AcDbSymbolTable
 70
12
  0
LAYER
  5
B55
330
B54
100
AcDbSymbolTableRecord
100
AcDbLayerTableRecord
  2
0
 70
   0
 62
   7
  6
CONTINUOUS
  0
LAYER
  5
B56
330
B54
100
AcDbSymbolTableRecord
100
AcDbLayerTableRecord
  2
none
 70
    0
 62
    7
  6
CONTINUOUS
  0
LAYER
  5
B57
330
B54
100
AcDbSymbolTableRecord
100
AcDbLayerTableRecord
  2
Shape2DView
 70
    0
 62
    7
  6
CONTINUOUS
  0
LAYER
  5
B58
330
B54
100
AcDbSymbolTableRecord
100
AcDbLayerTableRecord
  2
Shape2DView001
 70
    0
 62
    7
  6
CONTINUOUS
  0
LAYER
  5
B59
330
B54
100
AcDbSymbolTableRecord
100
AcDbLayerTableRecord
  2
Shape2DView002
 70
    0
 62
    7
  6
CONTINUOUS
  0
LAYER
  5
B5A
330
B54
100
AcDbSymbolTableRecord
100
AcDbLayerTableRecord
  2
Shape2DView003
 70
    0
 62
    7
  6
CONTINUOUS
  0
LAYER
  5
B5B
330
B54
100
AcDbSymbolTableRecord
100
AcDbLayerTableRecord
  2
Shape2DView004
 70
    0
 62
    7
  6
CONTINUOUS
  0
LAYER
  5
B5C
330
B54
100
AcDbSymbolTableRecord
100
AcDbLayerTableRecord
  2
Shape2DView005
 70
    0
 62
    7
  6
CONTINUOUS
  0
LAYER
  5
B5D
330
B54
100
AcDbSymbolTableRecord
100
AcDbLayerTableRecord
  2
Shape2DView006
 70
    0
 62
    7
  6
CONTINUOUS
  0
LAYER
  5
B5E
330
B54
100
AcDbSymbolTableRecord
100
AcDbLayerTableRecord
  2
Shape2DView007
 70
    0
 62
    7
  6
CONTINUOUS
  0
LAYER
  5
B5F
330
B54
100
AcDbSymbolTableRecord
100
AcDbLayerTableRecord
  2
Shape2DView008
 70
    0
 62
    7
  6
CONTINUOUS
  0
LAYER
  5
B60
330
B54
100
AcDbSymbolTableRecord
100
AcDbLayerTableRecord
  2
Shape2DView009
 70
    0
 62
    7
  6
CONTINUOUS
  0
ENDTAB
  0
TABLE
  2
STYLE
  5
70
330
0
100
AcDbSymbolTable
 70
     2
  0
STYLE
  5
71
330
70
100
AcDbSymbolTableRecord
100
AcDbTextStyleTableRecord
  2
STANDARD
 70
     0
 40
0.0
 41
1.0
 50
0.0
 71
     0
 42
2.5
  3
arial.ttf
  4

  0
STYLE
  5
72
330
70
100
AcDbSymbolTableRecord
100
AcDbTextStyleTableRecord
  2
ANNOTATIVE
 70
     0
 40
0.0
 41
1.0
 50
0.0
 71
     0
 42
2.5
  3
arial.ttf
  4

  0
ENDTAB
  0
TABLE
  2
VIEW
  5
73
330
0
100
AcDbSymbolTable
 70
     0
  0
ENDTAB
  0
TABLE
  2
UCS
  5
74
330
0
100
AcDbSymbolTable
 70
     0
  0
ENDTAB
  0
TABLE
  2
APPID
  5
75
330
0
100
AcDbSymbolTable
 70
     2
  0
APPID
  5
76
330
75
100
AcDbSymbolTableRecord
100
AcDbRegAppTableRecord
  2
ACAD
 70
     0
  0
APPID
  5
77
330
75
100
AcDbSymbolTableRecord
100
AcDbRegAppTableRecord
  2
ACADANNOTATIVE
 70
     0
  0
ENDTAB
  0
TABLE
  2
DIMSTYLE
  5
78
330
0
100
AcDbSymbolTable
 70
     2
  0
DIMSTYLE
105
79
330
78
100
AcDbSymbolTableRecord
100
AcDbDimStyleTableRecord
  2
STANDARD
 70
     0
  3

  4

  5

  6

  7

 40
0.0
 41
2.5
 42
0.625
 43
3.75
 44
1.25
 45
0.0
 46
0.0
 47
0.0
 48
0.0
140
2.5
141
2.5
142
0.0
143
0.03937007874016
144
1.0
145
0.0
146
1.0
147
0.625
 71
     0
 72
     0
 73
     0
 74
     0
 75
     0
 76
     0
 77
     1
 78
     8
170
     0
171
     3
172
     1
173
     0
174
     0
175
     0
176
     0
177
     0
178
     0
270
     2
271
     2
272
     2
273
     2
274
     3
340
71
275
     0
280
     0
281
     0
282
     0
283
     0
284
     8
285
     0
286
     0
287
     3
288
     0
  0
ENDTAB
  0
TABLE
  2
BLOCK_RECORD
  5
A01
330
0
100
AcDbSymbolTable
  70
5
  0
BLOCK_RECORD
  5
A02
330
A01
100
AcDbSymbolTableRecord
100
AcDbBlockTableRecord
  2
*MODEL_SPACE
  0
BLOCK_RECORD
  5
A03
330
A01
100
AcDbSymbolTableRecord
100
AcDbBlockTableRecord
  2
*PAPER_SPACE
  0
ENDTAB
  0
ENDSEC
  0
SECTION
  2
BLOCKS
  0
BLOCK
  5
A04
330
A02
100
AcDbEntity
  8
0
100
AcDbBlockBegin
  2
*MODEL_SPACE
 70
   0
 10
0
 20
0
 30
0
  3
*MODEL_SPACE
  1
 
  0
ENDBLK
  5
A05
330
A02
100
AcDbEntity
  8
0
100
AcDbBlockEnd
  0
BLOCK
  5
A06
330
A03
100
AcDbEntity
 67
1
  8
0
100
AcDbBlockBegin
  2
*PAPER_SPACE
 70
   0
 10
0
 20
0
 30
0
  3
*PAPER_SPACE
  1
 
  0
ENDBLK
  5
A07
330
A03
100
AcDbEntity
 67
    1
  8
0
100
AcDbBlockEnd
  0
ENDSEC
  0
SECTION
  2
ENTITIES
  0
LINE
  5
A08
330
A02
100
AcDbEntity
  8
Shape2DView
100
AcDbLine
 10
92
 20
0
 30
0
 11
92
 21
22.1
 31
0
  0
LINE
  5
A09
330
A02
100
AcDbEntity
  8
Shape2DView
100
AcDbLine
 10
78.9
 20
0
 30
0
 11
92
 21
0
 31
0
  0
LINE
  5
A0A
330
A02
100
AcDbEntity
  8
Shape2DView
100
AcDbLine
 10
78.9
 20
5.60806
 30
0
 11
78.9
 21
-2.66454e-15
 31
0
  0
ARC
  5
A0B
330
A02
100
AcDbEntity
  8
Shape2DView
100
AcDbCircle
 10
78.6833
 20
5.98333
 30
0
 40
0.433333
100
AcDbArc
 50
-60
 51
150
  0
LINE
  5
A0C
330
A02
100
AcDbEntity
  8
Shape2DView
100
AcDbLine
 10
59.6919
 20
6.2
 30
0
 11
78.3081
 21
6.2
 31
0
  0
ARC
  5
A0D
330
A02
100
AcDbEntity
  8
Shape2DView
100
AcDbCircle
 10
59.3167
 20
5.98333
 30
0
 40
0.433333
100
AcDbArc
 50
30
 51
-120
  0
LINE
  5
A0E
330
A02
100
AcDbEntity
  8
Shape2DView
100
AcDbLine
 10
59.1
 20
5.60806
 30
0
 11
59.1
 21
-2.66454e-15
 31
0
  0
LINE
  5
A0F
330
A02
100
AcDbEntity
  8
Shape2DView
100
AcDbLine
 10
32.9
 20
0
 30
0
 11
59.1
 21
0
 31
0
  0
LINE
  5
A10
330
A02
100
AcDbEntity
  8
Shape2DView
100
AcDbLine
 10
32.9
 20
5.60806
 30
0
 11
32.9
 21
-2.66454e-15
 31
0
  0
ARC
  5
A11
330
A02
100
AcDbEntity
  8
Shape2DView
100
AcDbCircle
 10
32.6833
 20
5.98333
 30
0
 40
0.433333
100
AcDbArc
 50
-60
 51
150
  0
LINE
  5
A12
330
A02
100
AcDbEntity
  8
Shape2DView
100
AcDbLine
 10
13.6919
 20
6.2
 30
0
 11
32.3081
 21
6.2
 31
0
  0
ARC
  5
A13
330
A02
100
AcDbEntity
  8
Shape2DView
100
AcDbCircle
 10
13.3167
 20
5.98333
 30
0
 40
0.433333
100
AcDbArc
 50
30
 51
-120
  0
LINE
  5
A14
330
A02
100
AcDbEntity
  8
Shape2DView
100
AcDbLine
 10
13.1
 20
5.60806
 30
0
 11
13.1
 21
-2.66454e-15
 31
0
  0
LINE
  5
A15
330
A02
100
AcDbEntity
  8
Shape2DView
100
AcDbLine
 10
0
 20
0
 30
0
 11
13.1
 21
0
 31
0
  0
LINE
  5
A16
330
A02
100
AcDbEntity
  8
Shape2DView
100
AcDbLine
 10
0
 20
116
 30
0
 11
0
 21
0
 31
0
  0
LINE
  5
A17
330
A02
100
AcDbEntity
  8
Shape2DView
100
AcDbLine
 10
13.1
 20
116
 30
0
 11
0
 21
116
 31
0
  0
LINE
  5
A18
330
A02
100
AcDbEntity
  8
Shape2DView
100
AcDbLine
 10
13.1
 20
116
 30
0
 11
13.1
 21
110.392
 31
0
  0
ARC
  5
A19
330
A02
100
AcDbEntity
  8
Shape2DView
100
AcDbCircle
 10
13.3167
 20
110.017
 30
0
 40
0.433333
100
AcDbArc
 50
120
 51
-90
  0
ARC
  5
A1A
330
A02
100
AcDbEntity
  8
Shape2DView
100
AcDbCircle
 10
13.3167
 20
110.017
 30
0
 40
0.433333
100
AcDbArc
 50
-90
 51
-30
  0
LINE
  5
A1B
330
A02
100
AcDbEntity
  8
Shape2DView
100
AcDbLine
 10
13.6919
 20
109.8
 30
0
 11
32.3081
 21
109.8
 31
0
  0
ARC
  5
A1C
330
A02
100
AcDbEntity
  8
Shape2DView
100
AcDbCircle
 10
32.6833
 20
110.017
 30
0
 40
0.433333
100
AcDbArc
 50
-150
 51
-90
  0
ARC
  5
A1D
330
A02
100
AcDbEntity
  8
Shape2DView
100
AcDbCircle
 10
32.6833
 20
110.017
 30
0
 40
0.433333
100
AcDbArc
 50
-90
 51
60
  0
LINE
  5
A1E
330
A02
100
AcDbEntity
  8
Shape2DView
100
AcDbLine
 10
32.9
 20
116
 30
0
 11
32.9
 21
110.392
 31
0
  0
LINE
  5
A1F
330
A02
100
AcDbEntity
  8
Shape2DView
100
AcDbLine
 10
59.1
 20
116
 30
0
 11
32.9
 21
116
 31
0
  0
LINE
  5
A20
330
A02
100
AcDbEntity
  8
Shape2DView
100
AcDbLine
 10
59.1
 20
116
 30
0
 11
59.1
 21
110.392
 31
0
  0
ARC
  5
A21
330
A02
100
AcDbEntity
  8
Shape2DView
100
AcDbCircle
 10
59.3167
 20
110.017
 30
0
 40
0.433333
100
AcDbArc
 50
120
 51
-90
  0
ARC
  5
A22
330
A02
100
AcDbEntity
  8
Shape2DView
100
AcDbCircle
 10
59.3167
 20
110.017
 30
0
 40
0.433333
100
AcDbArc
 50
-90
 51
-30
  0
LINE
  5
A23
330
A02
100
AcDbEntity
  8
Shape2DView
100
AcDbLine
 10
59.6919
 20
109.8
 30
0
 11
78.3081
 21
109.8
 31
0
  0
ARC
  5
A24
330
A02
100
AcDbEntity
  8
Shape2DView
100
AcDbCircle
 10
78.6833
 20
110.017
 30
0
 40
0.433333
100
AcDbArc
 50
-150
 51
-90
  0
ARC
  5
A25
330
A02
100
AcDbEntity
  8
Shape2DView
100
AcDbCircle
 10
78.6833
 20
110.017
 30
0
 40
0.433333
100
AcDbArc
 50
-90
 51
60
  0
LINE
  5
A26
330
A02
100
AcDbEntity
  8
Shape2DView
100
AcDbLine
 10
78.9
 20
116
 30
0
 11
78.9
 21
110.392
 31
0
  0
LINE
  5
A27
330
A02
100
AcDbEntity
  8
Shape2DView
100
AcDbLine
 10
92
 20
116
 30
0
 11
78.9
 21
116
 31
0
  0
LINE
  5
A28
330
A02
100
AcDbEntity
  8
Shape2DView
100
AcDbLine
 10
92
 20
93.9
 30
0
 11
92
 21
116
 31
0
  0
LINE
  5
A29
330
A02
100
AcDbEntity
  8
Shape2DView
100
AcDbLine
 10
92
 20
93.9
 30
0
 11
86.3919
 21
93.9
 31
0
  0
ARC
  5
A2A
330
A02
100
AcDbEntity
  8
Shape2DView
100
AcDbCircle
 10
86.0167
 20
93.6833
 30
0
 40
0.433333
100
AcDbArc
 50
30
 51
180
  0
ARC
  5
A2B
330
A02
100
AcDbEntity
  8
Shape2DView
100
AcDbCircle
 10
86.0167
 20
93.6833
 30
0
 40
0.433333
100
AcDbArc
 50
180
 51
-120
  0
LINE
  5
A2C
330
A02
100
AcDbEntity
  8
Shape2DView
100
AcDbLine
 10
85.8
 20
93.3081
 30
0
 11
85.8
 21
74.6919
 31
0
  0
ARC
  5
A2D
330
A02
100
AcDbEntity
  8
Shape2DView
100
AcDbCircle
 10
86.0167
 20
74.3167
 30
0
 40
0.433333
100
AcDbArc
 50
120
 51
180
  0
ARC
  5
A2E
330
A02
100
AcDbEntity
  8
Shape2DView
100
AcDbCircle
 10
86.0167
 20
74.3167
 30
0
 40
0.433333
100
AcDbArc
 50
180
 51
-30
  0
LINE
  5
A2F
330
A02
100
AcDbEntity
  8
Shape2DView
100
AcDbLine
 10
92
 20
74.1
 30
0
 11
86.3919
 21
74.1
 31
0
  0
LINE
  5
A30
330
A02
100
AcDbEntity
  8
Shape2DView
100
AcDbLine
 10
92
 20
41.9
 30
0
 11
92
 21
74.1
 31
0
  0
LINE
  5
A31
330
A02
100
AcDbEntity
  8
Shape2DView
100
AcDbLine
 10
92
 20
41.9
 30
0
 11
86.3919
 21
41.9
 31
0
  0
ARC
  5
A32
330
A02
100
AcDbEntity
  8
Shape2DView
100
AcDbCircle
 10
86.0167
 20
41.6833
 30
0
 40
0.433333
100
AcDbArc
 50
30
 51
180
  0
ARC
  5
A33
330
A02
100
AcDbEntity
  8
Shape2DView
100
AcDbCircle
 10
86.0167
 20
41.6833
 30
0
 40
0.433333
100
AcDbArc
 50
180
 51
-120
  0
LINE
  5
A34
330
A02
100
AcDbEntity
  8
Shape2DView
100
AcDbLine
 10
85.8
 20
41.3081
 30
0
 11
85.8
 21
22.6919
 31
0
  0
ARC
  5
A35
330
A02
100
AcDbEntity
  8
Shape2DView
100
AcDbCircle
 10
86.0167
 20
22.3167
 30
0
 40
0.433333
100
AcDbArc
 50
120
 51
180
  0
ARC
  5
A36
330
A02
100
AcDbEntity
  8
Shape2DView
100
AcDbCircle
 10
86.0167
 20
22.3167
 30
0
 40
0.433333
100
AcDbArc
 50
180
 51
-30
  0
LINE
  5
A37
330
A02
100
AcDbEntity
  8
Shape2DView
100
AcDbLine
 10
92
 20
22.1
 30
0
 11
86.3919
 21
22.1
 31
0
  0
LINE
  5
A38
330
A02
100
AcDbEntity
  8
Shape2DView001
100
AcDbLine
 10
0
 20
117
 30
0
 11
0
 21
131.6
 31
0
  0
LINE
  5
A39
330
A02
100
AcDbEntity
  8
Shape2DView001
100
AcDbLine
 10
-2.83107e-15
 20
131.6
 30
0
 11
5.60806
 21
131.6
 31
0
  0
LINE
  5
A3A
330
A02
100
AcDbEntity
  8
Shape2DView001
100
AcDbLine
 10
21.1
 20
117
 30
0
 11
0
 21
117
 31
0
  0
LINE
  5
A3B
330
A02
100
AcDbEntity
  8
Shape2DView001
100
AcDbLine
 10
21.1
 20
117
 30
0
 11
21.1
 21
122.608
 31
0
  0
ARC
  5
A3C
330
A02
100
AcDbEntity
  8
Shape2DView001
100
AcDbCircle
 10
21.3167
 20
122.983
 30
0
 40
0.433333
100
AcDbArc
 50
90
 51
-120
  0
ARC
  5
A3D
330
A02
100
AcDbEntity
  8
Shape2DView001
100
AcDbCircle
 10
21.3167
 20
122.983
 30
0
 40
0.433333
100
AcDbArc
 50
30
 51
90
  0
LINE
  5
A3E
330
A02
100
AcDbEntity
  8
Shape2DView001
100
AcDbLine
 10
21.6919
 20
123.2
 30
0
 11
40.3081
 21
123.2
 31
0
  0
ARC
  5
A3F
330
A02
100
AcDbEntity
  8
Shape2DView001
100
AcDbCircle
 10
40.6833
 20
122.983
 30
0
 40
0.433333
100
AcDbArc
 50
90
 51
150
  0
ARC
  5
A40
330
A02
100
AcDbEntity
  8
Shape2DView001
100
AcDbCircle
 10
40.6833
 20
122.983
 30
0
 40
0.433333
100
AcDbArc
 50
-60
 51
90
  0
LINE
  5
A41
330
A02
100
AcDbEntity
  8
Shape2DView001
100
AcDbLine
 10
40.9
 20
117
 30
0
 11
40.9
 21
122.608
 31
0
  0
LINE
  5
A42
330
A02
100
AcDbEntity
  8
Shape2DView001
100
AcDbLine
 10
92
 20
117
 30
0
 11
40.9
 21
117
 31
0
  0
LINE
  5
A43
330
A02
100
AcDbEntity
  8
Shape2DView001
100
AcDbLine
 10
92
 20
166
 30
0
 11
92
 21
117
 31
0
  0
LINE
  5
A44
330
A02
100
AcDbEntity
  8
Shape2DView001
100
AcDbLine
 10
79.5
 20
166
 30
0
 11
92
 21
166
 31
0
  0
ARC
  5
A45
330
A02
100
AcDbEntity
  8
Shape2DView001
100
AcDbCircle
 10
79.1
 20
166
 30
0
 40
0.4
100
AcDbArc
 50
180
 51
0
  0
ARC
  5
A46
330
A02
100
AcDbEntity
  8
Shape2DView001
100
AcDbCircle
 10
79.1
 20
166
 30
0
 40
0.4
100
AcDbArc
 50
90
 51
180
  0
LINE
  5
A47
330
A02
100
AcDbEntity
  8
Shape2DView001
100
AcDbLine
 10
79.1
 20
166.4
 30
0
 11
79.1
 21
172
 31
0
  0
LINE
  5
A48
330
A02
100
AcDbEntity
  8
Shape2DView001
100
AcDbLine
 10
79.1
 20
172
 30
0
 11
58.9
 21
172
 31
0
  0
LINE
  5
A49
330
A02
100
AcDbEntity
  8
Shape2DView001
100
AcDbLine
 10
58.9
 20
166.4
 30
0
 11
58.9
 21
172
 31
0
  0
ARC
  5
A4A
330
A02
100
AcDbEntity
  8
Shape2DView001
100
AcDbCircle
 10
58.9
 20
166
 30
0
 40
0.4
100
AcDbArc
 50
0
 51
90
  0
ARC
  5
A4B
330
A02
100
AcDbEntity
  8
Shape2DView001
100
AcDbCircle
 10
58.9
 20
166
 30
0
 40
0.4
100
AcDbArc
 50
180
 51
0
  0
LINE
  5
A4C
330
A02
100
AcDbEntity
  8
Shape2DView001
100
AcDbLine
 10
33.5
 20
166
 30
0
 11
58.5
 21
166
 31
0
  0
ARC
  5
A4D
330
A02
100
AcDbEntity
  8
Shape2DView001
100
AcDbCircle
 10
33.1
 20
166
 30
0
 40
0.4
100
AcDbArc
 50
180
 51
0
  0
ARC
  5
A4E
330
A02
100
AcDbEntity
  8
Shape2DView001
100
AcDbCircle
 10
33.1
 20
166
 30
0
 40
0.4
100
AcDbArc
 50
90
 51
180
  0
LINE
  5
A4F
330
A02
100
AcDbEntity
  8
Shape2DView001
100
AcDbLine
 10
33.1
 20
166.4
 30
0
 11
33.1
 21
172
 31
0
  0
LINE
  5
A50
330
A02
100
AcDbEntity
  8
Shape2DView001
100
AcDbLine
 10
33.1
 20
172
 30
0
 11
12.9
 21
172
 31
0
  0
LINE
  5
A51
330
A02
100
AcDbEntity
  8
Shape2DView001
100
AcDbLine
 10
12.9
 20
166.4
 30
0
 11
12.9
 21
172
 31
0
  0
ARC
  5
A52
330
A02
100
AcDbEntity
  8
Shape2DView001
100
AcDbCircle
 10
12.9
 20
166
 30
0
 40
0.4
100
AcDbArc
 50
0
 51
90
  0
ARC
  5
A53
330
A02
100
AcDbEntity
  8
Shape2DView001
100
AcDbCircle
 10
12.9
 20
166
 30
0
 40
0.4
100
AcDbArc
 50
180
 51
0
  0
LINE
  5
A54
330
A02
100
AcDbEntity
  8
Shape2DView001
100
AcDbLine
 10
0
 20
166
 30
0
 11
12.5
 21
166
 31
0
  0
LINE
  5
A55
330
A02
100
AcDbEntity
  8
Shape2DView001
100
AcDbLine
 10
0
 20
151.4
 30
0
 11
0
 21
166
 31
0
  0
LINE
  5
A56
330
A02
100
AcDbEntity
  8
Shape2DView001
100
AcDbLine
 10
-2.83107e-15
 20
151.4
 30
0
 11
5.60806
 21
151.4
 31
0
  0
ARC
  5
A57
330
A02
100
AcDbEntity
  8
Shape2DView001
100
AcDbCircle
 10
5.98333
 20
151.183
 30
0
 40
0.433333
100
AcDbArc
 50
0
 51
150
  0
ARC
  5
A58
330
A02
100
AcDbEntity
  8
Shape2DView001
100
AcDbCircle
 10
5.98333
 20
151.183
 30
0
 40
0.433333
100
AcDbArc
 50
-60
 51
0
  0
LINE
  5
A59
330
A02
100
AcDbEntity
  8
Shape2DView001
100
AcDbLine
 10
6.2
 20
150.808
 30
0
 11
6.2
 21
132.192
 31
0
  0
ARC
  5
A5A
330
A02
100
AcDbEntity
  8
Shape2DView001
100
AcDbCircle
 10
5.98333
 20
131.817
 30
0
 40
0.433333
100
AcDbArc
 50
0
 51
60
  0
ARC
  5
A5B
330
A02
100
AcDbEntity
  8
Shape2DView001
100
AcDbCircle
 10
5.98333
 20
131.817
 30
0
 40
0.433333
100
AcDbArc
 50
-150
 51
0
  0
LINE
  5
A5C
330
A02
100
AcDbEntity
  8
Shape2DView001
100
AcDbLine
 10
56.3828
 20
131.6
 30
0
 11
61.6172
 21
131.6
 31
0
  0
ARC
  5
A5D
330
A02
100
AcDbEntity
  8
Shape2DView001
100
AcDbCircle
 10
56.0133
 20
131.813
 30
0
 40
0.426667
100
AcDbArc
 50
120
 51
-30
  0
LINE
  5
A5E
330
A02
100
AcDbEntity
  8
Shape2DView001
100
AcDbLine
 10
55.8
 20
150.817
 30
0
 11
55.8
 21
132.183
 31
0
  0
ARC
  5
A5F
330
A02
100
AcDbEntity
  8
Shape2DView001
100
AcDbCircle
 10
56.0133
 20
151.187
 30
0
 40
0.426667
100
AcDbArc
 50
30
 51
-120
  0
LINE
  5
A60
330
A02
100
AcDbEntity
  8
Shape2DView001
100
AcDbLine
 10
56.3828
 20
151.4
 30
0
 11
61.6172
 21
151.4
 31
0
  0
ARC
  5
A61
330
A02
100
AcDbEntity
  8
Shape2DView001
100
AcDbCircle
 10
61.9867
 20
151.187
 30
0
 40
0.426667
100
AcDbArc
 50
0
 51
150
  0
ARC
  5
A62
330
A02
100
AcDbEntity
  8
Shape2DView001
100
AcDbCircle
 10
61.9867
 20
151.187
 30
0
 40
0.426667
100
AcDbArc
 50
-60
 51
0
  0
LINE
  5
A63
330
A02
100
AcDbEntity
  8
Shape2DView001
100
AcDbLine
 10
62.2
 20
150.817
 30
0
 11
62.2
 21
132.183
 31
0
  0
ARC
  5
A64
330
A02
100
AcDbEntity
  8
Shape2DView001
100
AcDbCircle
 10
61.9867
 20
131.813
 30
0
 40
0.426667
100
AcDbArc
 50
0
 51
60
  0
ARC
  5
A65
330
A02
100
AcDbEntity
  8
Shape2DView001
100
AcDbCircle
 10
61.9867
 20
131.813
 30
0
 40
0.426667
100
AcDbArc
 50
-150
 51
0
  0
LINE
  5
A66
330
A02
100
AcDbEntity
  8
Shape2DView002
100
AcDbLine
 10
0
 20
173
 30
0
 11
0
 21
187.6
 31
0
  0
LINE
  5
A67
330
A02
100
AcDbEntity
  8
Shape2DView002
100
AcDbLine
 10
-2.83107e-15
 20
187.6
 30
0
 11
5.60806
 21
187.6
 31
0
  0
LINE
  5
A68
330
A02
100
AcDbEntity
  8
Shape2DView002
100
AcDbLine
 10
21.1
 20
173
 30
0
 11
0
 21
173
 31
0
  0
LINE
  5
A69
330
A02
100
AcDbEntity
  8
Shape2DView002
100
AcDbLine
 10
21.1
 20
173
 30
0
 11
21.1
 21
178.608
 31
0
  0
ARC
  5
A6A
330
A02
100
AcDbEntity
  8
Shape2DView002
100
AcDbCircle
 10
21.3167
 20
178.983
 30
0
 40
0.433333
100
AcDbArc
 50
90
 51
-120
  0
ARC
  5
A6B
330
A02
100
AcDbEntity
  8
Shape2DView002
100
AcDbCircle
 10
21.3167
 20
178.983
 30
0
 40
0.433333
100
AcDbArc
 50
30
 51
90
  0
LINE
  5
A6C
330
A02
100
AcDbEntity
  8
Shape2DView002
100
AcDbLine
 10
40.3081
 20
179.2
 30
0
 11
21.6919
 21
179.2
 31
0
  0
ARC
  5
A6D
330
A02
100
AcDbEntity
  8
Shape2DView002
100
AcDbCircle
 10
40.6833
 20
178.983
 30
0
 40
0.433333
100
AcDbArc
 50
90
 51
150
  0
ARC
  5
A6E
330
A02
100
AcDbEntity
  8
Shape2DView002
100
AcDbCircle
 10
40.6833
 20
178.983
 30
0
 40
0.433333
100
AcDbArc
 50
-60
 51
90
  0
LINE
  5
A6F
330
A02
100
AcDbEntity
  8
Shape2DView002
100
AcDbLine
 10
40.9
 20
173
 30
0
 11
40.9
 21
178.608
 31
0
  0
LINE
  5
A70
330
A02
100
AcDbEntity
  8
Shape2DView002
100
AcDbLine
 10
92
 20
173
 30
0
 11
40.9
 21
173
 31
0
  0
LINE
  5
A71
330
A02
100
AcDbEntity
  8
Shape2DView002
100
AcDbLine
 10
92
 20
222
 30
0
 11
92
 21
173
 31
0
  0
LINE
  5
A72
330
A02
100
AcDbEntity
  8
Shape2DView002
100
AcDbLine
 10
79.5
 20
222
 30
0
 11
92
 21
222
 31
0
  0
ARC
  5
A73
330
A02
100
AcDbEntity
  8
Shape2DView002
100
AcDbCircle
 10
79.1
 20
222
 30
0
 40
0.4
100
AcDbArc
 50
180
 51
0
  0
ARC
  5
A74
330
A02
100
AcDbEntity
  8
Shape2DView002
100
AcDbCircle
 10
79.1
 20
222
 30
0
 40
0.4
100
AcDbArc
 50
90
 51
180
  0
LINE
  5
A75
330
A02
100
AcDbEntity
  8
Shape2DView002
100
AcDbLine
 10
79.1
 20
222.4
 30
0
 11
79.1
 21
228
 31
0
  0
LINE
  5
A76
330
A02
100
AcDbEntity
  8
Shape2DView002
100
AcDbLine
 10
79.1
 20
228
 30
0
 11
58.9
 21
228
 31
0
  0
LINE
  5
A77
330
A02
100
AcDbEntity
  8
Shape2DView002
100
AcDbLine
 10
58.9
 20
222.4
 30
0
 11
58.9
 21
228
 31
0
  0
ARC
  5
A78
330
A02
100
AcDbEntity
  8
Shape2DView002
100
AcDbCircle
 10
58.9
 20
222
 30
0
 40
0.4
100
AcDbArc
 50
0
 51
90
  0
ARC
  5
A79
330
A02
100
AcDbEntity
  8
Shape2DView002
100
AcDbCircle
 10
58.9
 20
222
 30
0
 40
0.4
100
AcDbArc
 50
180
 51
0
  0
LINE
  5
A7A
330
A02
100
AcDbEntity
  8
Shape2DView002
100
AcDbLine
 10
33.5
 20
222
 30
0
 11
58.5
 21
222
 31
0
  0
ARC
  5
A7B
330
A02
100
AcDbEntity
  8
Shape2DView002
100
AcDbCircle
 10
33.1
 20
222
 30
0
 40
0.4
100
AcDbArc
 50
180
 51
0
  0
ARC
  5
A7C
330
A02
100
AcDbEntity
  8
Shape2DView002
100
AcDbCircle
 10
33.1
 20
222
 30
0
 40
0.4
100
AcDbArc
 50
90
 51
180
  0
LINE
  5
A7D
330
A02
100
AcDbEntity
  8
Shape2DView002
100
AcDbLine
 10
33.1
 20
222.4
 30
0
 11
33.1
 21
228
 31
0
  0
LINE
  5
A7E
330
A02
100
AcDbEntity
  8
Shape2DView002
100
AcDbLine
 10
33.1
 20
228
 30
0
 11
12.9
 21
228
 31
0
  0
LINE
  5
A7F
330
A02
100
AcDbEntity
  8
Shape2DView002
100
AcDbLine
 10
12.9
 20
222.4
 30
0
 11
12.9
 21
228
 31
0
  0
ARC
  5
A80
330
A02
100
AcDbEntity
  8
Shape2DView002
100
AcDbCircle
 10
12.9
 20
222
 30
0
 40
0.4
100
AcDbArc
 50
0
 51
90
  0
ARC
  5
A81
330
A02
100
AcDbEntity
  8
Shape2DView002
100
AcDbCircle
 10
12.9
 20
222
 30
0
 40
0.4
100
AcDbArc
 50
180
 51
0
  0
LINE
  5
A82
330
A02
100
AcDbEntity
  8
Shape2DView002
100
AcDbLine
 10
0
 20
222
 30
0
 11
12.5
 21
222
 31
0
  0
LINE
  5
A83
330
A02
100
AcDbEntity
  8
Shape2DView002
100
AcDbLine
 10
0
 20
207.4
 30
0
 11
0
 21
222
 31
0
  0
LINE
  5
A84
330
A02
100
AcDbEntity
  8
Shape2DView002
100
AcDbLine
 10
-2.83107e-15
 20
207.4
 30
0
 11
5.60806
 21
207.4
 31
0
  0
ARC
  5
A85
330
A02
100
AcDbEntity
  8
Shape2DView002
100
AcDbCircle
 10
5.98333
 20
207.183
 30
0
 40
0.433333
100
AcDbArc
 50
0
 51
150
  0
ARC
  5
A86
330
A02
100
AcDbEntity
  8
Shape2DView002
100
AcDbCircle
 10
5.98333
 20
207.183
 30
0
 40
0.433333
100
AcDbArc
 50
-60
 51
0
  0
LINE
  5
A87
330
A02
100
AcDbEntity
  8
Shape2DView002
100
AcDbLine
 10
6.2
 20
188.192
 30
0
 11
6.2
 21
206.808
 31
0
  0
ARC
  5
A88
330
A02
100
AcDbEntity
  8
Shape2DView002
100
AcDbCircle
 10
5.98333
 20
187.817
 30
0
 40
0.433333
100
AcDbArc
 50
0
 51
60
  0
ARC
  5
A89
330
A02
100
AcDbEntity
  8
Shape2DView002
100
AcDbCircle
 10
5.98333
 20
187.817
 30
0
 40
0.433333
100
AcDbArc
 50
-150
 51
0
  0
ARC
  5
A8A
330
A02
100
AcDbEntity
  8
Shape2DView002
100
AcDbCircle
 10
61.9867
 20
207.187
 30
0
 40
0.426667
100
AcDbArc
 50
0
 51
150
  0
ARC
  5
A8B
330
A02
100
AcDbEntity
  8
Shape2DView002
100
AcDbCircle
 10
61.9867
 20
207.187
 30
0
 40
0.426667
100
AcDbArc
 50
-60
 51
0
  0
LINE
  5
A8C
330
A02
100
AcDbEntity
  8
Shape2DView002
100
AcDbLine
 10
62.2
 20
188.183
 30
0
 11
62.2
 21
206.817
 31
0
  0
ARC
  5
A8D
330
A02
100
AcDbEntity
  8
Shape2DView002
100
AcDbCircle
 10
61.9867
 20
187.813
 30
0
 40
0.426667
100
AcDbArc
 50
0
 51
60
  0
ARC
  5
A8E
330
A02
100
AcDbEntity
  8
Shape2DView002
100
AcDbCircle
 10
61.9867
 20
187.813
 30
0
 40
0.426667
100
AcDbArc
 50
-150
 51
0
  0
LINE
  5
A8F
330
A02
100
AcDbEntity
  8
Shape2DView002
100
AcDbLine
 10
56.3828
 20
187.6
 30
0
 11
61.6172
 21
187.6
 31
0
  0
ARC
  5
A90
330
A02
100
AcDbEntity
  8
Shape2DView002
100
AcDbCircle
 10
56.0133
 20
187.813
 30
0
 40
0.426667
100
AcDbArc
 50
120
 51
-30
  0
LINE
  5
A91
330
A02
100
AcDbEntity
  8
Shape2DView002
100
AcDbLine
 10
55.8
 20
188.183
 30
0
 11
55.8
 21
206.817
 31
0
  0
ARC
  5
A92
330
A02
100
AcDbEntity
  8
Shape2DView002
100
AcDbCircle
 10
56.0133
 20
207.187
 30
0
 40
0.426667
100
AcDbArc
 50
30
 51
-120
  0
LINE
  5
A93
330
A02
100
AcDbEntity
  8
Shape2DView002
100
AcDbLine
 10
56.3828
 20
207.4
 30
0
 11
61.6172
 21
207.4
 31
0
  0
LINE
  5
A94
330
A02
100
AcDbEntity
  8
Shape2DView003
100
AcDbLine
 10
-3.55271e-15
 20
235
 30
0
 11
14
 21
235
 31
0
  0
ARC
  5
A95
330
A02
100
AcDbEntity
  8
Shape2DView003
100
AcDbCircle
 10
14.4
 20
235
 30
0
 40
0.4
100
AcDbArc
 50
-90
 51
0
  0
ARC
  5
A96
330
A02
100
AcDbEntity
  8
Shape2DView003
100
AcDbCircle
 10
14.4
 20
235
 30
0
 40
0.4
100
AcDbArc
 50
0
 51
-180
  0
LINE
  5
A97
330
A02
100
AcDbEntity
  8
Shape2DView003
100
AcDbLine
 10
-3.55271e-15
 20
251.1
 30
0
 11
-3.55271e-15
 21
235
 31
0
  0
LINE
  5
A98
330
A02
100
AcDbEntity
  8
Shape2DView003
100
AcDbLine
 10
1.16573e-15
 20
251.1
 30
0
 11
5.60806
 21
251.1
 31
0
  0
LINE
  5
A99
330
A02
100
AcDbEntity
  8
Shape2DView003
100
AcDbLine
 10
14.4
 20
234.6
 30
0
 11
14.4
 21
229
 31
0
  0
LINE
  5
A9A
330
A02
100
AcDbEntity
  8
Shape2DView003
100
AcDbLine
 10
34.6
 20
229
 30
0
 11
14.4
 21
229
 31
0
  0
LINE
  5
A9B
330
A02
100
AcDbEntity
  8
Shape2DView003
100
AcDbLine
 10
34.6
 20
234.6
 30
0
 11
34.6
 21
229
 31
0
  0
ARC
  5
A9C
330
A02
100
AcDbEntity
  8
Shape2DView003
100
AcDbCircle
 10
34.6
 20
235
 30
0
 40
0.4
100
AcDbArc
 50
0
 51
-180
  0
ARC
  5
A9D
330
A02
100
AcDbEntity
  8
Shape2DView003
100
AcDbCircle
 10
34.6
 20
235
 30
0
 40
0.4
100
AcDbArc
 50
-180
 51
-90
  0
LINE
  5
A9E
330
A02
100
AcDbEntity
  8
Shape2DView003
100
AcDbLine
 10
35
 20
235
 30
0
 11
49
 21
235
 31
0
  0
LINE
  5
A9F
330
A02
100
AcDbEntity
  8
Shape2DView003
100
AcDbLine
 10
49
 20
235
 30
0
 11
49
 21
339
 31
0
  0
LINE
  5
AA0
330
A02
100
AcDbEntity
  8
Shape2DView003
100
AcDbLine
 10
49
 20
339
 30
0
 11
35
 21
339
 31
0
  0
ARC
  5
AA1
330
A02
100
AcDbEntity
  8
Shape2DView003
100
AcDbCircle
 10
34.6
 20
339
 30
0
 40
0.4
100
AcDbArc
 50
90
 51
180
  0
ARC
  5
AA2
330
A02
100
AcDbEntity
  8
Shape2DView003
100
AcDbCircle
 10
34.6
 20
339
 30
0
 40
0.4
100
AcDbArc
 50
180
 51
0
  0
LINE
  5
AA3
330
A02
100
AcDbEntity
  8
Shape2DView003
100
AcDbLine
 10
34.6
 20
339.4
 30
0
 11
34.6
 21
345
 31
0
  0
LINE
  5
AA4
330
A02
100
AcDbEntity
  8
Shape2DView003
100
AcDbLine
 10
14.4
 20
345
 30
0
 11
34.6
 21
345
 31
0
  0
LINE
  5
AA5
330
A02
100
AcDbEntity
  8
Shape2DView003
100
AcDbLine
 10
14.4
 20
339.4
 30
0
 11
14.4
 21
345
 31
0
  0
ARC
  5
AA6
330
A02
100
AcDbEntity
  8
Shape2DView003
100
AcDbCircle
 10
14.4
 20
339
 30
0
 40
0.4
100
AcDbArc
 50
180
 51
0
  0
ARC
  5
AA7
330
A02
100
AcDbEntity
  8
Shape2DView003
100
AcDbCircle
 10
14.4
 20
339
 30
0
 40
0.4
100
AcDbArc
 50
0
 51
90
  0
LINE
  5
AA8
330
A02
100
AcDbEntity
  8
Shape2DView003
100
AcDbLine
 10
14
 20
339
 30
0
 11
0
 21
339
 31
0
  0
LINE
  5
AA9
330
A02
100
AcDbEntity
  8
Shape2DView003
100
AcDbLine
 10
-3.55271e-15
 20
339
 30
0
 11
-3.55271e-15
 21
322.9
 31
0
  0
LINE
  5
AAA
330
A02
100
AcDbEntity
  8
Shape2DView003
100
AcDbLine
 10
1.16573e-15
 20
322.9
 30
0
 11
5.60806
 21
322.9
 31
0
  0
ARC
  5
AAB
330
A02
100
AcDbEntity
  8
Shape2DView003
100
AcDbCircle
 10
5.98333
 20
322.683
 30
0
 40
0.433333
100
AcDbArc
 50
0
 51
150
  0
ARC
  5
AAC
330
A02
100
AcDbEntity
  8
Shape2DView003
100
AcDbCircle
 10
5.98333
 20
322.683
 30
0
 40
0.433333
100
AcDbArc
 50
-60
 51
0
  0
LINE
  5
AAD
330
A02
100
AcDbEntity
  8
Shape2DView003
100
AcDbLine
 10
6.2
 20
303.692
 30
0
 11
6.2
 21
322.308
 31
0
  0
ARC
  5
AAE
330
A02
100
AcDbEntity
  8
Shape2DView003
100
AcDbCircle
 10
5.98333
 20
303.317
 30
0
 40
0.433333
100
AcDbArc
 50
0
 51
60
  0
ARC
  5
AAF
330
A02
100
AcDbEntity
  8
Shape2DView003
100
AcDbCircle
 10
5.98333
 20
303.317
 30
0
 40
0.433333
100
AcDbArc
 50
-150
 51
0
  0
LINE
  5
AB0
330
A02
100
AcDbEntity
  8
Shape2DView003
100
AcDbLine
 10
1.16573e-15
 20
303.1
 30
0
 11
5.60806
 21
303.1
 31
0
  0
LINE
  5
AB1
330
A02
100
AcDbEntity
  8
Shape2DView003
100
AcDbLine
 10
-3.55271e-15
 20
303.1
 30
0
 11
-3.55271e-15
 21
270.9
 31
0
  0
LINE
  5
AB2
330
A02
100
AcDbEntity
  8
Shape2DView003
100
AcDbLine
 10
1.16573e-15
 20
270.9
 30
0
 11
5.60806
 21
270.9
 31
0
  0
ARC
  5
AB3
330
A02
100
AcDbEntity
  8
Shape2DView003
100
AcDbCircle
 10
5.98333
 20
270.683
 30
0
 40
0.433333
100
AcDbArc
 50
0
 51
150
  0
ARC
  5
AB4
330
A02
100
AcDbEntity
  8
Shape2DView003
100
AcDbCircle
 10
5.98333
 20
270.683
 30
0
 40
0.433333
100
AcDbArc
 50
-60
 51
0
  0
LINE
  5
AB5
330
A02
100
AcDbEntity
  8
Shape2DView003
100
AcDbLine
 10
6.2
 20
251.692
 30
0
 11
6.2
 21
270.308
 31
0
  0
ARC
  5
AB6
330
A02
100
AcDbEntity
  8
Shape2DView003
100
AcDbCircle
 10
5.98333
 20
251.317
 30
0
 40
0.433333
100
AcDbArc
 50
0
 51
60
  0
ARC
  5
AB7
330
A02
100
AcDbEntity
  8
Shape2DView003
100
AcDbCircle
 10
5.98333
 20
251.317
 30
0
 40
0.433333
100
AcDbArc
 50
-150
 51
0
  0
ARC
  5
AB8
330
A02
100
AcDbEntity
  8
Shape2DView003
100
AcDbCircle
 10
27.5
 20
298.5
 30
0
 40
14
100
AcDbArc
 50
-51.7868
 51
51.7868
  0
LINE
  5
AB9
330
A02
100
AcDbEntity
  8
Shape2DView003
100
AcDbLine
 10
36.1603
 20
287.5
 30
0
 11
36.1603
 21
286.5
 31
0
  0
ARC
  5
ABA
330
A02
100
AcDbEntity
  8
Shape2DView003
100
AcDbCircle
 10
27.5
 20
275.5
 30
0
 40
14
100
AcDbArc
 50
-51.7868
 51
51.7868
  0
LINE
  5
ABB
330
A02
100
AcDbEntity
  8
Shape2DView003
100
AcDbLine
 10
36.1603
 20
264.5
 30
0
 11
36.1603
 21
263.5
 31
0
  0
ARC
  5
ABC
330
A02
100
AcDbEntity
  8
Shape2DView003
100
AcDbCircle
 10
27.5
 20
252.5
 30
0
 40
14
100
AcDbArc
 50
-51.7868
 51
51.7868
  0
LINE
  5
ABD
330
A02
100
AcDbEntity
  8
Shape2DView003
100
AcDbLine
 10
36.1603
 20
241.5
 30
0
 11
18.8397
 21
241.5
 31
0
  0
ARC
  5
ABE
330
A02
100
AcDbEntity
  8
Shape2DView003
100
AcDbCircle
 10
27.5
 20
252.5
 30
0
 40
14
100
AcDbArc
 50
128.213
 51
-128.213
  0
LINE
  5
ABF
330
A02
100
AcDbEntity
  8
Shape2DView003
100
AcDbLine
 10
18.8397
 20
264.5
 30
0
 11
18.8397
 21
263.5
 31
0
  0
ARC
  5
AC0
330
A02
100
AcDbEntity
  8
Shape2DView003
100
AcDbCircle
 10
27.5
 20
275.5
 30
0
 40
14
100
AcDbArc
 50
128.213
 51
-128.213
  0
LINE
  5
AC1
330
A02
100
AcDbEntity
  8
Shape2DView003
100
AcDbLine
 10
18.8397
 20
287.5
 30
0
 11
18.8397
 21
286.5
 31
0
  0
ARC
  5
AC2
330
A02
100
AcDbEntity
  8
Shape2DView003
100
AcDbCircle
 10
27.5
 20
298.5
 30
0
 40
14
100
AcDbArc
 50
128.213
 51
-128.213
  0
LINE
  5
AC3
330
A02
100
AcDbEntity
  8
Shape2DView003
100
AcDbLine
 10
18.8397
 20
310.5
 30
0
 11
18.8397
 21
309.5
 31
0
  0
ARC
  5
AC4
330
A02
100
AcDbEntity
  8
Shape2DView003
100
AcDbCircle
 10
27.5
 20
321.5
 30
0
 40
14
100
AcDbArc
 50
128.213
 51
-128.213
  0
LINE
  5
AC5
330
A02
100
AcDbEntity
  8
Shape2DView003
100
AcDbLine
 10
36.1603
 20
332.5
 30
0
 11
18.8397
 21
332.5
 31
0
  0
ARC
  5
AC6
330
A02
100
AcDbEntity
  8
Shape2DView003
100
AcDbCircle
 10
27.5
 20
321.5
 30
0
 40
14
100
AcDbArc
 50
-51.7868
 51
51.7868
  0
LINE
  5
AC7
330
A02
100
AcDbEntity
  8
Shape2DView003
100
AcDbLine
 10
36.1603
 20
310.5
 30
0
 11
36.1603
 21
309.5
 31
0
  0
CIRCLE
  5
AC8
330
A02
100
AcDbEntity
  8
Shape2DView003
100
AcDbCircle
 10
43.6403
 20
328
 40
1
  0
CIRCLE
  5
AC9
330
A02
100
AcDbEntity
  8
Shape2DView003
100
AcDbCircle
 10
43.6403
 20
305
 40
1
  0
CIRCLE
  5
ACA
330
A02
100
AcDbEntity
  8
Shape2DView003
100
AcDbCircle
 10
11.3597
 20
315
 40
1
  0
CIRCLE
  5
ACB
330
A02
100
AcDbEntity
  8
Shape2DView003
100
AcDbCircle
 10
11.3597
 20
292
 40
1
  0
CIRCLE
  5
ACC
330
A02
100
AcDbEntity
  8
Shape2DView003
100
AcDbCircle
 10
43.6403
 20
282
 40
1
  0
CIRCLE
  5
ACD
330
A02
100
AcDbEntity
  8
Shape2DView003
100
AcDbCircle
 10
43.6403
 20
259
 40
1
  0
CIRCLE
  5
ACE
330
A02
100
AcDbEntity
  8
Shape2DView003
100
AcDbCircle
 10
11.3597
 20
269
 40
1
  0
CIRCLE
  5
ACF
330
A02
100
AcDbEntity
  8
Shape2DView003
100
AcDbCircle
 10
11.3597
 20
246
 40
1
  0
LINE
  5
AD0
330
A02
100
AcDbEntity
  8
Shape2DView004
100
AcDbLine
 10
6
 20
367.5
 30
0
 11
6
 21
352
 31
0
  0
ARC
  5
AD1
330
A02
100
AcDbEntity
  8
Shape2DView004
100
AcDbCircle
 10
6
 20
367.9
 30
0
 40
0.4
100
AcDbArc
 50
-90
 51
90
  0
ARC
  5
AD2
330
A02
100
AcDbEntity
  8
Shape2DView004
100
AcDbCircle
 10
6
 20
367.9
 30
0
 40
0.4
100
AcDbArc
 50
90
 51
180
  0
LINE
  5
AD3
330
A02
100
AcDbEntity
  8
Shape2DView004
100
AcDbLine
 10
6
 20
352
 30
0
 11
20.5
 21
352
 31
0
  0
ARC
  5
AD4
330
A02
100
AcDbEntity
  8
Shape2DView004
100
AcDbCircle
 10
20.9
 20
352
 30
0
 40
0.4
100
AcDbArc
 50
-90
 51
0
  0
ARC
  5
AD5
330
A02
100
AcDbEntity
  8
Shape2DView004
100
AcDbCircle
 10
20.9
 20
352
 30
0
 40
0.4
100
AcDbArc
 50
0
 51
180
  0
LINE
  5
AD6
330
A02
100
AcDbEntity
  8
Shape2DView004
100
AcDbLine
 10
5.6
 20
367.9
 30
0
 11
0
 21
367.9
 31
0
  0
LINE
  5
AD7
330
A02
100
AcDbEntity
  8
Shape2DView004
100
AcDbLine
 10
0
 20
367.9
 30
0
 11
0
 21
388.1
 31
0
  0
ARC
  5
AD8
330
A02
100
AcDbEntity
  8
Shape2DView004
100
AcDbCircle
 10
6
 20
388.1
 30
0
 40
0.4
100
AcDbArc
 50
180
 51
-90
  0
ARC
  5
AD9
330
A02
100
AcDbEntity
  8
Shape2DView004
100
AcDbCircle
 10
6
 20
388.1
 30
0
 40
0.4
100
AcDbArc
 50
-90
 51
90
  0
LINE
  5
ADA
330
A02
100
AcDbEntity
  8
Shape2DView004
100
AcDbLine
 10
6
 20
419.5
 30
0
 11
6
 21
388.5
 31
0
  0
ARC
  5
ADB
330
A02
100
AcDbEntity
  8
Shape2DView004
100
AcDbCircle
 10
6
 20
419.9
 30
0
 40
0.4
100
AcDbArc
 50
-90
 51
90
  0
ARC
  5
ADC
330
A02
100
AcDbEntity
  8
Shape2DView004
100
AcDbCircle
 10
6
 20
419.9
 30
0
 40
0.4
100
AcDbArc
 50
90
 51
180
  0
LINE
  5
ADD
330
A02
100
AcDbEntity
  8
Shape2DView004
100
AcDbLine
 10
5.6
 20
388.1
 30
0
 11
0
 21
388.1
 31
0
  0
LINE
  5
ADE
330
A02
100
AcDbEntity
  8
Shape2DView004
100
AcDbLine
 10
20.9
 20
351.6
 30
0
 11
20.9
 21
346
 31
0
  0
LINE
  5
ADF
330
A02
100
AcDbEntity
  8
Shape2DView004
100
AcDbLine
 10
41.1
 20
346
 30
0
 11
20.9
 21
346
 31
0
  0
LINE
  5
AE0
330
A02
100
AcDbEntity
  8
Shape2DView004
100
AcDbLine
 10
41.1
 20
351.6
 30
0
 11
41.1
 21
346
 31
0
  0
LINE
  5
AE1
330
A02
100
AcDbEntity
  8
Shape2DView004
100
AcDbLine
 10
56
 20
352
 30
0
 11
56
 21
367.5
 31
0
  0
ARC
  5
AE2
330
A02
100
AcDbEntity
  8
Shape2DView004
100
AcDbCircle
 10
56
 20
367.9
 30
0
 40
0.4
100
AcDbArc
 50
0
 51
90
  0
ARC
  5
AE3
330
A02
100
AcDbEntity
  8
Shape2DView004
100
AcDbCircle
 10
56
 20
367.9
 30
0
 40
0.4
100
AcDbArc
 50
90
 51
-90
  0
LINE
  5
AE4
330
A02
100
AcDbEntity
  8
Shape2DView004
100
AcDbLine
 10
41.5
 20
352
 30
0
 11
56
 21
352
 31
0
  0
ARC
  5
AE5
330
A02
100
AcDbEntity
  8
Shape2DView004
100
AcDbCircle
 10
41.1
 20
352
 30
0
 40
0.4
100
AcDbArc
 50
0
 51
180
  0
ARC
  5
AE6
330
A02
100
AcDbEntity
  8
Shape2DView004
100
AcDbCircle
 10
41.1
 20
352
 30
0
 40
0.4
100
AcDbArc
 50
180
 51
-90
  0
LINE
  5
AE7
330
A02
100
AcDbEntity
  8
Shape2DView004
100
AcDbLine
 10
56.4
 20
367.9
 30
0
 11
62
 21
367.9
 31
0
  0
LINE
  5
AE8
330
A02
100
AcDbEntity
  8
Shape2DView004
100
AcDbLine
 10
5.6
 20
419.9
 30
0
 11
0
 21
419.9
 31
0
  0
LINE
  5
AE9
330
A02
100
AcDbEntity
  8
Shape2DView004
100
AcDbLine
 10
0
 20
419.9
 30
0
 11
0
 21
440.1
 31
0
  0
ARC
  5
AEA
330
A02
100
AcDbEntity
  8
Shape2DView004
100
AcDbCircle
 10
6
 20
440.1
 30
0
 40
0.4
100
AcDbArc
 50
180
 51
-90
  0
ARC
  5
AEB
330
A02
100
AcDbEntity
  8
Shape2DView004
100
AcDbCircle
 10
6
 20
440.1
 30
0
 40
0.4
100
AcDbArc
 50
-90
 51
90
  0
LINE
  5
AEC
330
A02
100
AcDbEntity
  8
Shape2DView004
100
AcDbLine
 10
6
 20
456
 30
0
 11
6
 21
440.5
 31
0
  0
LINE
  5
AED
330
A02
100
AcDbEntity
  8
Shape2DView004
100
AcDbLine
 10
20.5
 20
456
 30
0
 11
6
 21
456
 31
0
  0
ARC
  5
AEE
330
A02
100
AcDbEntity
  8
Shape2DView004
100
AcDbCircle
 10
20.9
 20
456
 30
0
 40
0.4
100
AcDbArc
 50
180
 51
0
  0
ARC
  5
AEF
330
A02
100
AcDbEntity
  8
Shape2DView004
100
AcDbCircle
 10
20.9
 20
456
 30
0
 40
0.4
100
AcDbArc
 50
0
 51
90
  0
LINE
  5
AF0
330
A02
100
AcDbEntity
  8
Shape2DView004
100
AcDbLine
 10
5.6
 20
440.1
 30
0
 11
0
 21
440.1
 31
0
  0
LINE
  5
AF1
330
A02
100
AcDbEntity
  8
Shape2DView004
100
AcDbLine
 10
62
 20
388.1
 30
0
 11
62
 21
367.9
 31
0
  0
LINE
  5
AF2
330
A02
100
AcDbEntity
  8
Shape2DView004
100
AcDbLine
 10
56.4
 20
388.1
 30
0
 11
62
 21
388.1
 31
0
  0
ARC
  5
AF3
330
A02
100
AcDbEntity
  8
Shape2DView004
100
AcDbCircle
 10
56
 20
388.1
 30
0
 40
0.4
100
AcDbArc
 50
90
 51
-90
  0
ARC
  5
AF4
330
A02
100
AcDbEntity
  8
Shape2DView004
100
AcDbCircle
 10
56
 20
388.1
 30
0
 40
0.4
100
AcDbArc
 50
-90
 51
0
  0
LINE
  5
AF5
330
A02
100
AcDbEntity
  8
Shape2DView004
100
AcDbLine
 10
56
 20
388.5
 30
0
 11
56
 21
419.5
 31
0
  0
ARC
  5
AF6
330
A02
100
AcDbEntity
  8
Shape2DView004
100
AcDbCircle
 10
56
 20
419.9
 30
0
 40
0.4
100
AcDbArc
 50
0
 51
90
  0
ARC
  5
AF7
330
A02
100
AcDbEntity
  8
Shape2DView004
100
AcDbCircle
 10
56
 20
419.9
 30
0
 40
0.4
100
AcDbArc
 50
90
 51
-90
  0
LINE
  5
AF8
330
A02
100
AcDbEntity
  8
Shape2DView004
100
AcDbLine
 10
20.9
 20
456.4
 30
0
 11
20.9
 21
462
 31
0
  0
LINE
  5
AF9
330
A02
100
AcDbEntity
  8
Shape2DView004
100
AcDbLine
 10
20.9
 20
462
 30
0
 11
41.1
 21
462
 31
0
  0
ARC
  5
AFA
330
A02
100
AcDbEntity
  8
Shape2DView004
100
AcDbCircle
 10
41.1
 20
456
 30
0
 40
0.4
100
AcDbArc
 50
90
 51
180
  0
ARC
  5
AFB
330
A02
100
AcDbEntity
  8
Shape2DView004
100
AcDbCircle
 10
41.1
 20
456
 30
0
 40
0.4
100
AcDbArc
 50
180
 51
0
  0
LINE
  5
AFC
330
A02
100
AcDbEntity
  8
Shape2DView004
100
AcDbLine
 10
56
 20
456
 30
0
 11
41.5
 21
456
 31
0
  0
LINE
  5
AFD
330
A02
100
AcDbEntity
  8
Shape2DView004
100
AcDbLine
 10
56
 20
440.5
 30
0
 11
56
 21
456
 31
0
  0
ARC
  5
AFE
330
A02
100
AcDbEntity
  8
Shape2DView004
100
AcDbCircle
 10
56
 20
440.1
 30
0
 40
0.4
100
AcDbArc
 50
90
 51
-90
  0
ARC
  5
AFF
330
A02
100
AcDbEntity
  8
Shape2DView004
100
AcDbCircle
 10
56
 20
440.1
 30
0
 40
0.4
100
AcDbArc
 50
-90
 51
0
  0
LINE
  5
B00
330
A02
100
AcDbEntity
  8
Shape2DView004
100
AcDbLine
 10
41.1
 20
456.4
 30
0
 11
41.1
 21
462
 31
0
  0
LINE
  5
B01
330
A02
100
AcDbEntity
  8
Shape2DView004
100
AcDbLine
 10
56.4
 20
419.9
 30
0
 11
62
 21
419.9
 31
0
  0
LINE
  5
B02
330
A02
100
AcDbEntity
  8
Shape2DView004
100
AcDbLine
 10
62
 20
440.1
 30
0
 11
62
 21
419.9
 31
0
  0
LINE
  5
B03
330
A02
100
AcDbEntity
  8
Shape2DView004
100
AcDbLine
 10
56.4
 20
440.1
 30
0
 11
62
 21
440.1
 31
0
  0
CIRCLE
  5
B04
330
A02
100
AcDbEntity
  8
Shape2DView004
100
AcDbCircle
 10
9.2
 20
355.2
 40
1.5
  0
CIRCLE
  5
B05
330
A02
100
AcDbEntity
  8
Shape2DView004
100
AcDbCircle
 10
9.2
 20
452.8
 40
1.5
  0
CIRCLE
  5
B06
330
A02
100
AcDbEntity
  8
Shape2DView004
100
AcDbCircle
 10
52.8
 20
355.2
 40
1.5
  0
CIRCLE
  5
B07
330
A02
100
AcDbEntity
  8
Shape2DView004
100
AcDbCircle
 10
52.8
 20
452.8
 40
1.5
  0
LINE
  5
B08
330
A02
100
AcDbEntity
  8
Shape2DView005
100
AcDbLine
 10
-1.06581e-14
 20
469
 30
0
 11
14
 21
469
 31
0
  0
ARC
  5
B09
330
A02
100
AcDbEntity
  8
Shape2DView005
100
AcDbCircle
 10
14.4
 20
469
 30
0
 40
0.4
100
AcDbArc
 50
-90
 51
0
  0
ARC
  5
B0A
330
A02
100
AcDbEntity
  8
Shape2DView005
100
AcDbCircle
 10
14.4
 20
469
 30
0
 40
0.4
100
AcDbArc
 50
0
 51
180
  0
LINE
  5
B0B
330
A02
100
AcDbEntity
  8
Shape2DView005
100
AcDbLine
 10
-1.06581e-14
 20
485.1
 30
0
 11
-1.06581e-14
 21
469
 31
0
  0
LINE
  5
B0C
330
A02
100
AcDbEntity
  8
Shape2DView005
100
AcDbLine
 10
-7.27196e-15
 20
485.1
 30
0
 11
5.60806
 21
485.1
 31
0
  0
LINE
  5
B0D
330
A02
100
AcDbEntity
  8
Shape2DView005
100
AcDbLine
 10
14.4
 20
468.6
 30
0
 11
14.4
 21
463
 31
0
  0
LINE
  5
B0E
330
A02
100
AcDbEntity
  8
Shape2DView005
100
AcDbLine
 10
34.6
 20
463
 30
0
 11
14.4
 21
463
 31
0
  0
LINE
  5
B0F
330
A02
100
AcDbEntity
  8
Shape2DView005
100
AcDbLine
 10
34.6
 20
468.6
 30
0
 11
34.6
 21
463
 31
0
  0
ARC
  5
B10
330
A02
100
AcDbEntity
  8
Shape2DView005
100
AcDbCircle
 10
34.6
 20
469
 30
0
 40
0.4
100
AcDbArc
 50
0
 51
180
  0
ARC
  5
B11
330
A02
100
AcDbEntity
  8
Shape2DView005
100
AcDbCircle
 10
34.6
 20
469
 30
0
 40
0.4
100
AcDbArc
 50
180
 51
-90
  0
LINE
  5
B12
330
A02
100
AcDbEntity
  8
Shape2DView005
100
AcDbLine
 10
35
 20
469
 30
0
 11
49
 21
469
 31
0
  0
LINE
  5
B13
330
A02
100
AcDbEntity
  8
Shape2DView005
100
AcDbLine
 10
49
 20
469
 30
0
 11
49
 21
484.5
 31
0
  0
ARC
  5
B14
330
A02
100
AcDbEntity
  8
Shape2DView005
100
AcDbCircle
 10
49
 20
484.9
 30
0
 40
0.4
100
AcDbArc
 50
0
 51
90
  0
ARC
  5
B15
330
A02
100
AcDbEntity
  8
Shape2DView005
100
AcDbCircle
 10
49
 20
484.9
 30
0
 40
0.4
100
AcDbArc
 50
90
 51
-90
  0
LINE
  5
B16
330
A02
100
AcDbEntity
  8
Shape2DView005
100
AcDbLine
 10
49.4
 20
484.9
 30
0
 11
55
 21
484.9
 31
0
  0
LINE
  5
B17
330
A02
100
AcDbEntity
  8
Shape2DView005
100
AcDbLine
 10
55
 20
505.1
 30
0
 11
55
 21
484.9
 31
0
  0
LINE
  5
B18
330
A02
100
AcDbEntity
  8
Shape2DView005
100
AcDbLine
 10
49.4
 20
505.1
 30
0
 11
55
 21
505.1
 31
0
  0
ARC
  5
B19
330
A02
100
AcDbEntity
  8
Shape2DView005
100
AcDbCircle
 10
49
 20
505.1
 30
0
 40
0.4
100
AcDbArc
 50
90
 51
-90
  0
ARC
  5
B1A
330
A02
100
AcDbEntity
  8
Shape2DView005
100
AcDbCircle
 10
49
 20
505.1
 30
0
 40
0.4
100
AcDbArc
 50
-90
 51
0
  0
LINE
  5
B1B
330
A02
100
AcDbEntity
  8
Shape2DView005
100
AcDbLine
 10
49
 20
505.5
 30
0
 11
49
 21
536.5
 31
0
  0
ARC
  5
B1C
330
A02
100
AcDbEntity
  8
Shape2DView005
100
AcDbCircle
 10
49
 20
536.9
 30
0
 40
0.4
100
AcDbArc
 50
0
 51
90
  0
ARC
  5
B1D
330
A02
100
AcDbEntity
  8
Shape2DView005
100
AcDbCircle
 10
49
 20
536.9
 30
0
 40
0.4
100
AcDbArc
 50
90
 51
-90
  0
LINE
  5
B1E
330
A02
100
AcDbEntity
  8
Shape2DView005
100
AcDbLine
 10
49.4
 20
536.9
 30
0
 11
55
 21
536.9
 31
0
  0
LINE
  5
B1F
330
A02
100
AcDbEntity
  8
Shape2DView005
100
AcDbLine
 10
55
 20
557.1
 30
0
 11
55
 21
536.9
 31
0
  0
LINE
  5
B20
330
A02
100
AcDbEntity
  8
Shape2DView005
100
AcDbLine
 10
49.4
 20
557.1
 30
0
 11
55
 21
557.1
 31
0
  0
ARC
  5
B21
330
A02
100
AcDbEntity
  8
Shape2DView005
100
AcDbCircle
 10
49
 20
557.1
 30
0
 40
0.4
100
AcDbArc
 50
90
 51
-90
  0
ARC
  5
B22
330
A02
100
AcDbEntity
  8
Shape2DView005
100
AcDbCircle
 10
49
 20
557.1
 30
0
 40
0.4
100
AcDbArc
 50
-90
 51
0
  0
LINE
  5
B23
330
A02
100
AcDbEntity
  8
Shape2DView005
100
AcDbLine
 10
49
 20
557.5
 30
0
 11
49
 21
573
 31
0
  0
LINE
  5
B24
330
A02
100
AcDbEntity
  8
Shape2DView005
100
AcDbLine
 10
49
 20
573
 30
0
 11
35
 21
573
 31
0
  0
ARC
  5
B25
330
A02
100
AcDbEntity
  8
Shape2DView005
100
AcDbCircle
 10
34.6
 20
573
 30
0
 40
0.4
100
AcDbArc
 50
90
 51
180
  0
ARC
  5
B26
330
A02
100
AcDbEntity
  8
Shape2DView005
100
AcDbCircle
 10
34.6
 20
573
 30
0
 40
0.4
100
AcDbArc
 50
180
 51
0
  0
LINE
  5
B27
330
A02
100
AcDbEntity
  8
Shape2DView005
100
AcDbLine
 10
34.6
 20
573.4
 30
0
 11
34.6
 21
579
 31
0
  0
LINE
  5
B28
330
A02
100
AcDbEntity
  8
Shape2DView005
100
AcDbLine
 10
14.4
 20
579
 30
0
 11
34.6
 21
579
 31
0
  0
LINE
  5
B29
330
A02
100
AcDbEntity
  8
Shape2DView005
100
AcDbLine
 10
14.4
 20
573.4
 30
0
 11
14.4
 21
579
 31
0
  0
LINE
  5
B2A
330
A02
100
AcDbEntity
  8
Shape2DView005
100
AcDbLine
 10
-7.27196e-15
 20
556.9
 30
0
 11
5.60806
 21
556.9
 31
0
  0
LINE
  5
B2B
330
A02
100
AcDbEntity
  8
Shape2DView005
100
AcDbLine
 10
-1.06581e-14
 20
573
 30
0
 11
-1.06581e-14
 21
556.9
 31
0
  0
LINE
  5
B2C
330
A02
100
AcDbEntity
  8
Shape2DView005
100
AcDbLine
 10
14
 20
573
 30
0
 11
-1.42109e-14
 21
573
 31
0
  0
ARC
  5
B2D
330
A02
100
AcDbEntity
  8
Shape2DView005
100
AcDbCircle
 10
14.4
 20
573
 30
0
 40
0.4
100
AcDbArc
 50
180
 51
0
  0
ARC
  5
B2E
330
A02
100
AcDbEntity
  8
Shape2DView005
100
AcDbCircle
 10
14.4
 20
573
 30
0
 40
0.4
100
AcDbArc
 50
0
 51
90
  0
ARC
  5
B2F
330
A02
100
AcDbEntity
  8
Shape2DView005
100
AcDbCircle
 10
5.98333
 20
556.683
 30
0
 40
0.433333
100
AcDbArc
 50
0
 51
150
  0
ARC
  5
B30
330
A02
100
AcDbEntity
  8
Shape2DView005
100
AcDbCircle
 10
5.98333
 20
556.683
 30
0
 40
0.433333
100
AcDbArc
 50
-60
 51
0
  0
LINE
  5
B31
330
A02
100
AcDbEntity
  8
Shape2DView005
100
AcDbLine
 10
6.2
 20
556.308
 30
0
 11
6.2
 21
537.692
 31
0
  0
ARC
  5
B32
330
A02
100
AcDbEntity
  8
Shape2DView005
100
AcDbCircle
 10
5.98333
 20
537.317
 30
0
 40
0.433333
100
AcDbArc
 50
0
 51
60
  0
ARC
  5
B33
330
A02
100
AcDbEntity
  8
Shape2DView005
100
AcDbCircle
 10
5.98333
 20
537.317
 30
0
 40
0.433333
100
AcDbArc
 50
-150
 51
0
  0
LINE
  5
B34
330
A02
100
AcDbEntity
  8
Shape2DView005
100
AcDbLine
 10
-7.27196e-15
 20
537.1
 30
0
 11
5.60806
 21
537.1
 31
0
  0
LINE
  5
B35
330
A02
100
AcDbEntity
  8
Shape2DView005
100
AcDbLine
 10
-1.06581e-14
 20
537.1
 30
0
 11
-1.06581e-14
 21
504.9
 31
0
  0
LINE
  5
B36
330
A02
100
AcDbEntity
  8
Shape2DView005
100
AcDbLine
 10
-7.27196e-15
 20
504.9
 30
0
 11
5.60806
 21
504.9
 31
0
  0
ARC
  5
B37
330
A02
100
AcDbEntity
  8
Shape2DView005
100
AcDbCircle
 10
5.98333
 20
504.683
 30
0
 40
0.433333
100
AcDbArc
 50
0
 51
150
  0
ARC
  5
B38
330
A02
100
AcDbEntity
  8
Shape2DView005
100
AcDbCircle
 10
5.98333
 20
504.683
 30
0
 40
0.433333
100
AcDbArc
 50
-60
 51
0
  0
LINE
  5
B39
330
A02
100
AcDbEntity
  8
Shape2DView005
100
AcDbLine
 10
6.2
 20
504.308
 30
0
 11
6.2
 21
485.692
 31
0
  0
ARC
  5
B3A
330
A02
100
AcDbEntity
  8
Shape2DView005
100
AcDbCircle
 10
5.98333
 20
485.317
 30
0
 40
0.433333
100
AcDbArc
 50
0
 51
60
  0
ARC
  5
B3B
330
A02
100
AcDbEntity
  8
Shape2DView005
100
AcDbCircle
 10
5.98333
 20
485.317
 30
0
 40
0.433333
100
AcDbArc
 50
-150
 51
0
  0
ARC
  5
B3C
330
A02
100
AcDbEntity
  8
Shape2DView005
100
AcDbCircle
 10
37
 20
561
 30
0
 40
6.6
100
AcDbArc
 50
-61.4965
 51
61.4965
  0
LINE
  5
B3D
330
A02
100
AcDbEntity
  8
Shape2DView005
100
AcDbLine
 10
40.1496
 20
555.2
 30
0
 11
33.8504
 21
555.2
 31
0
  0
ARC
  5
B3E
330
A02
100
AcDbEntity
  8
Shape2DView005
100
AcDbCircle
 10
37
 20
561
 30
0
 40
6.6
100
AcDbArc
 50
118.504
 51
-118.504
  0
LINE
  5
B3F
330
A02
100
AcDbEntity
  8
Shape2DView005
100
AcDbLine
 10
40.1496
 20
566.8
 30
0
 11
33.8504
 21
566.8
 31
0
  0
LINE
  5
B40
330
A02
100
AcDbEntity
  8
Shape2DView006
100
AcDbLine
 10
68
 20
247
 30
0
 11
58
 21
247
 31
0
  0
LINE
  5
B41
330
A02
100
AcDbEntity
  8
Shape2DView006
100
AcDbLine
 10
58
 20
247
 30
0
 11
58
 21
237
 31
0
  0
LINE
  5
B42
330
A02
100
AcDbEntity
  8
Shape2DView006
100
AcDbLine
 10
58
 20
237
 30
0
 11
68
 21
237
 31
0
  0
LINE
  5
B43
330
A02
100
AcDbEntity
  8
Shape2DView006
100
AcDbLine
 10
68
 20
237
 30
0
 11
68
 21
247
 31
0
  0
CIRCLE
  5
B44
330
A02
100
AcDbEntity
  8
Shape2DView006
100
AcDbCircle
 10
64.8
 20
240.2
 40
1.05
  0
LINE
  5
B45
330
A02
100
AcDbEntity
  8
Shape2DView007
100
AcDbLine
 10
58
 20
259
 30
0
 11
68
 21
259
 31
0
  0
LINE
  5
B46
330
A02
100
AcDbEntity
  8
Shape2DView007
100
AcDbLine
 10
68
 20
259
 30
0
 11
68
 21
249
 31
0
  0
LINE
  5
B47
330
A02
100
AcDbEntity
  8
Shape2DView007
100
AcDbLine
 10
68
 20
249
 30
0
 11
58
 21
249
 31
0
  0
LINE
  5
B48
330
A02
100
AcDbEntity
  8
Shape2DView007
100
AcDbLine
 10
58
 20
249
 30
0
 11
58
 21
259
 31
0
  0
CIRCLE
  5
B49
330
A02
100
AcDbEntity
  8
Shape2DView007
100
AcDbCircle
 10
61.2
 20
252.2
 40
1.05
  0
LINE
  5
B4A
330
A02
100
AcDbEntity
  8
Shape2DView008
100
AcDbLine
 10
58
 20
261
 30
0
 11
68
 21
261
 31
0
  0
LINE
  5
B4B
330
A02
100
AcDbEntity
  8
Shape2DView008
100
AcDbLine
 10
68
 20
261
 30
0
 11
68
 21
271
 31
0
  0
LINE
  5
B4C
330
A02
100
AcDbEntity
  8
Shape2DView008
100
AcDbLine
 10
68
 20
271
 30
0
 11
58
 21
271
 31
0
  0
LINE
  5
B4D
330
A02
100
AcDbEntity
  8
Shape2DView008
100
AcDbLine
 10
58
 20
271
 30
0
 11
58
 21
261
 31
0
  0
CIRCLE
  5
B4E
330
A02
100
AcDbEntity
  8
Shape2DView008
100
AcDbCircle
 10
61.2
 20
267.8
 40
1.05
  0
LINE
  5
B4F
330
A02
100
AcDbEntity
  8
Shape2DView009
100
AcDbLine
 10
68
 20
273
 30
0
 11
58
 21
273
 31
0
  0
LINE
  5
B50
330
A02
100
AcDbEntity
  8
Shape2DView009
100
AcDbLine
 10
58
 20
273
 30
0
 11
58
 21
283
 31
0
  0
LINE
  5
B51
330
A02
100
AcDbEntity
  8
Shape2DView009
100
AcDbLine
 10
58
 20
283
 30
0
 11
68
 21
283
 31
0
  0
LINE
  5
B52
330
A02
100
AcDbEntity
  8
Shape2DView009
100
AcDbLine
 10
68
 20
283
 30
0
 11
68
 21
273
 31
0
  0
CIRCLE
  5
B53
330
A02
100
AcDbEntity
  8
Shape2DView009
100
AcDbCircle
 10
64.8
 20
279.8
 40
1.05
  0
ENDSEC
  0
SECTION
  2
OBJECTS
  0
DICTIONARY
  5
F000
330
0
100
AcDbDictionary
  3
ACAD_GROUP
350
F001
  0
DICTIONARY
  5
F001
330
F000
100
AcDbDictionary
  0
ENDSEC
  0
EOF